# Blender v3.0.1 OBJ File: ''
# www.blender.org
mtllib cube.mtl
v -0.500000 0.500000 0.500000
v -0.500000 0.500000 -0.500000
v 0.500000 0.500000 0.500000
v 0.500000 0.500000 -0.500000
vt 0.625000 0.500000
vt 0.875000 0.500000
vt 0.875000 0.750000
vt 0.625000 0.750000
vn 0.0000 1.0000 0.0000
g Cube.001_Cube.015_face_01_red
usemtl face_01_red
s off
f 4/1/1 2/2/1 1/3/1 3/4/1
v -0.500000 -0.500000 0.500000
v -0.500000 0.500000 0.500000
v 0.500000 -0.500000 0.500000
v 0.500000 0.500000 0.500000
vt 0.375000 0.750000
vt 0.625000 0.750000
vt 0.625000 1.000000
vt 0.375000 1.000000
vn 0.0000 0.0000 1.0000
g Cube.002_Cube.016_face_02_blue
usemtl face_02_blue
s off
f 7/5/2 8/6/2 6/7/2 5/8/2
v 0.500000 -0.500000 0.500000
v 0.500000 0.500000 0.500000
v 0.500000 -0.500000 -0.500000
v 0.500000 0.500000 -0.500000
vt 0.375000 0.500000
vt 0.625000 0.500000
vt 0.625000 0.750000
vt 0.375000 0.750000
vn 1.0000 0.0000 0.0000
g Cube.003_Cube.017_face_03_green
usemtl face_03_green
s off
f 11/9/3 12/10/3 10/11/3 9/12/3
v -0.500000 -0.500000 0.500000
v -0.500000 -0.500000 -0.500000
v 0.500000 -0.500000 0.500000
v 0.500000 -0.500000 -0.500000
vt 0.125000 0.500000
vt 0.375000 0.500000
vt 0.375000 0.750000
vt 0.125000 0.750000
vn 0.0000 -1.0000 0.0000
g Cube.004_Cube.018_face_04_purple
usemtl face_04_purple
s off
f 14/13/4 16/14/4 15/15/4 13/16/4
v -0.500000 -0.500000 -0.500000
v -0.500000 0.500000 -0.500000
v 0.500000 -0.500000 -0.500000
v 0.500000 0.500000 -0.500000
vt 0.375000 0.250000
vt 0.625000 0.250000
vt 0.625000 0.500000
vt 0.375000 0.500000
vn 0.0000 0.0000 -1.0000
g Cube.005_Cube.019_face_05_yellow
usemtl face_05_yellow
s off
f 17/17/5 18/18/5 20/19/5 19/20/5
v -0.500000 -0.500000 0.500000
v -0.500000 0.500000 0.500000
v -0.500000 -0.500000 -0.500000
v -0.500000 0.500000 -0.500000
vt 0.375000 0.000000
vt 0.625000 0.000000
vt 0.625000 0.250000
vt 0.375000 0.250000
vn -1.0000 0.0000 0.0000
g Cube.006_Cube.020_face_06_sky
usemtl face_06_sky
s off
f 21/21/6 22/22/6 24/23/6 23/24/6
