# Blender v2.92.0 OBJ File: 'car_bed.blend'
# www.blender.org
mtllib car_bed.mtl
o Circle
v -0.002094 0.041740 -3.143142
v -0.616926 0.041740 -3.082587
v -1.208131 0.041740 -2.903247
v -1.752989 0.041740 -2.612014
v -2.230560 0.041740 -2.220081
v -2.622493 0.041740 -1.742510
v -2.913725 0.041740 -1.197652
v -3.093065 0.041740 -0.606448
v -3.153621 0.041740 0.008385
v -3.093066 0.041740 0.623217
v -2.913725 0.041740 1.214422
v -2.622493 0.041740 1.759280
v -2.230560 0.041740 2.236851
v -1.752989 0.041740 2.628784
v -1.208131 0.041740 2.920017
v -0.616926 0.041740 3.099357
v -0.002093 0.041740 3.159912
v 0.612740 0.041740 3.099356
v 1.203945 0.041740 2.920016
v 1.748802 0.041740 2.628783
v 2.226374 0.041740 2.236850
v 2.618307 0.041740 1.759278
v 2.909539 0.041740 1.214420
v 3.088878 0.041740 0.623215
v 3.149434 0.041740 0.008382
v 3.088877 0.041740 -0.606451
v 2.909536 0.041740 -1.197656
v 2.618303 0.041740 -1.742513
v 2.226370 0.041740 -2.220084
v 1.748797 0.041740 -2.612017
v 1.203939 0.041740 -2.903249
v 0.612734 0.041740 -3.082588
v -0.002094 0.164434 -3.143142
v -0.616926 0.164434 -3.082587
v -1.208131 0.164434 -2.903247
v -1.752989 0.164434 -2.612014
v -2.230560 0.164434 -2.220081
v -2.622493 0.164434 -1.742510
v -2.913725 0.164434 -1.197652
v -3.093065 0.164434 -0.606448
v -3.153621 0.164434 0.008385
v -3.093066 0.164434 0.623217
v -2.913725 0.164434 1.214422
v -2.622493 0.164434 1.759280
v -2.230560 0.164434 2.236851
v -1.752989 0.164434 2.628784
v -1.208131 0.164434 2.920017
v -0.616926 0.164434 3.099357
v -0.002093 0.164434 3.159912
v 0.612740 0.164434 3.099356
v 1.203945 0.164434 2.920016
v 1.748802 0.164434 2.628783
v 2.226374 0.164434 2.236850
v 2.618307 0.164434 1.759278
v 2.909539 0.164434 1.214420
v 3.088878 0.164434 0.623215
v 3.149434 0.164434 0.008382
v 3.088877 0.164434 -0.606451
v 2.909536 0.164434 -1.197656
v 2.618303 0.164434 -1.742513
v 2.226370 0.164434 -2.220084
v 1.748797 0.164434 -2.612017
v 1.203939 0.164434 -2.903249
v 0.612734 0.164434 -3.082588
v -0.013585 0.209461 -3.122705
v -0.628417 0.209461 -3.062149
v -1.219622 0.209461 -2.882809
v -1.764480 0.209461 -2.591577
v -2.242051 0.209461 -2.199644
v -2.633984 0.209461 -1.722072
v -2.925216 0.209461 -1.177215
v -3.104556 0.209461 -0.586010
v -3.165112 0.209461 0.028822
v -3.104557 0.209461 0.643655
v -2.925216 0.209461 1.234859
v -2.633984 0.209461 1.779717
v -2.242051 0.209461 2.257289
v -1.764479 0.209461 2.649222
v -1.219622 0.209461 2.940454
v -0.628416 0.209461 3.119794
v -0.013584 0.209461 3.180350
v 0.601249 0.209461 3.119794
v 1.192454 0.209461 2.940454
v 1.737312 0.209461 2.649221
v 2.214883 0.209461 2.257288
v 2.606816 0.209461 1.779716
v 2.898048 0.209461 1.234857
v 3.077387 0.209461 0.643652
v 3.137943 0.209461 0.028819
v 3.077386 0.209461 -0.586013
v 2.898046 0.209461 -1.177218
v 2.606812 0.209461 -1.722076
v 2.214879 0.209461 -2.199647
v 1.737307 0.209461 -2.591579
v 1.192448 0.209461 -2.882811
v 0.601243 0.209461 -3.062150
v -0.013585 0.209461 -2.932783
v -0.601346 0.209461 -2.874894
v -1.166520 0.209461 -2.703450
v -1.687387 0.209461 -2.425041
v -2.143931 0.209461 -2.050365
v -2.518607 0.209461 -1.593821
v -2.797016 0.209461 -1.072954
v -2.968459 0.209461 -0.507780
v -3.026348 0.209461 0.079981
v -2.968459 0.209461 0.667742
v -2.797016 0.209461 1.232915
v -2.518607 0.209461 1.753783
v -2.143931 0.209461 2.210327
v -1.687387 0.209461 2.585003
v -1.166519 0.209461 2.863412
v -0.601345 0.209461 3.034856
v -0.013584 0.209461 3.092745
v 0.574178 0.209461 3.034855
v 1.139352 0.209461 2.863411
v 1.660219 0.209461 2.585002
v 2.116762 0.209461 2.210325
v 2.491438 0.209461 1.753781
v 2.769847 0.209461 1.232913
v 2.941290 0.209461 0.667739
v 2.999179 0.209461 0.079978
v 2.941289 0.209461 -0.507783
v 2.769845 0.209461 -1.072957
v 2.491435 0.209461 -1.593824
v 2.116758 0.209461 -2.050368
v 1.660214 0.209461 -2.425043
v 1.139346 0.209461 -2.703452
v 0.574172 0.209461 -2.874895
v -0.002094 0.041740 -3.143142
v -0.616926 0.041740 -3.082587
v -1.208131 0.041740 -2.903247
v -1.752989 0.041740 -2.612014
v -2.230560 0.041740 -2.220081
v -2.622493 0.041740 -1.742510
v -2.913725 0.041740 -1.197652
v -3.093065 0.041740 -0.606448
v -3.153621 0.041740 0.008385
v -3.093066 0.041740 0.623217
v -2.913725 0.041740 1.214422
v -2.622493 0.041740 1.759280
v -2.230560 0.041740 2.236851
v -1.752989 0.041740 2.628784
v -1.208131 0.041740 2.920017
v -0.616926 0.041740 3.099357
v -0.002093 0.041740 3.159912
v 0.612740 0.041740 3.099356
v 1.203945 0.041740 2.920016
v 1.748802 0.041740 2.628783
v 2.226374 0.041740 2.236850
v 2.618307 0.041740 1.759278
v 2.909539 0.041740 1.214420
v 3.088878 0.041740 0.623215
v 3.149434 0.041740 0.008382
v 3.088877 0.041740 -0.606451
v 2.909536 0.041740 -1.197656
v 2.618303 0.041740 -1.742513
v 2.226370 0.041740 -2.220084
v 1.748797 0.041740 -2.612017
v 1.203939 0.041740 -2.903249
v 0.612734 0.041740 -3.082588
v -0.002094 0.164434 -3.143142
v -0.616926 0.164434 -3.082587
v -1.208131 0.164434 -2.903247
v -1.752989 0.164434 -2.612014
v -2.230560 0.164434 -2.220081
v -2.622493 0.164434 -1.742510
v -2.913725 0.164434 -1.197652
v -3.093065 0.164434 -0.606448
v -3.153621 0.164434 0.008385
v -3.093066 0.164434 0.623217
v -2.913725 0.164434 1.214422
v -2.622493 0.164434 1.759280
v -2.230560 0.164434 2.236851
v -1.752989 0.164434 2.628784
v -1.208131 0.164434 2.920017
v -0.616926 0.164434 3.099357
v -0.002093 0.164434 3.159912
v 0.612740 0.164434 3.099356
v 1.203945 0.164434 2.920016
v 1.748802 0.164434 2.628783
v 2.226374 0.164434 2.236850
v 2.618307 0.164434 1.759278
v 2.909539 0.164434 1.214420
v 3.088878 0.164434 0.623215
v 3.149434 0.164434 0.008382
v 3.088877 0.164434 -0.606451
v 2.909536 0.164434 -1.197656
v 2.618303 0.164434 -1.742513
v 2.226370 0.164434 -2.220084
v 1.748797 0.164434 -2.612017
v 1.203939 0.164434 -2.903249
v 0.612734 0.164434 -3.082588
v -0.013585 0.209461 -3.122705
v -0.628417 0.209461 -3.062149
v -1.219622 0.209461 -2.882809
v -1.764480 0.209461 -2.591577
v -2.242051 0.209461 -2.199644
v -2.633984 0.209461 -1.722072
v -2.925216 0.209461 -1.177215
v -3.104556 0.209461 -0.586010
v -3.165112 0.209461 0.028822
v -3.104557 0.209461 0.643655
v -2.925216 0.209461 1.234859
v -2.633984 0.209461 1.779717
v -2.242051 0.209461 2.257289
v -1.764479 0.209461 2.649222
v -1.219622 0.209461 2.940454
v -0.628416 0.209461 3.119794
v -0.013584 0.209461 3.180350
v 0.601249 0.209461 3.119794
v 1.192454 0.209461 2.940454
v 1.737312 0.209461 2.649221
v 2.214883 0.209461 2.257288
v 2.606816 0.209461 1.779716
v 2.898048 0.209461 1.234857
v 3.077387 0.209461 0.643652
v 3.137943 0.209461 0.028819
v 3.077386 0.209461 -0.586013
v 2.898046 0.209461 -1.177218
v 2.606812 0.209461 -1.722076
v 2.214879 0.209461 -2.199647
v 1.737307 0.209461 -2.591579
v 1.192448 0.209461 -2.882811
v 0.601243 0.209461 -3.062150
v -0.013585 0.209461 -2.932783
v -0.601346 0.209461 -2.874894
v -1.166520 0.209461 -2.703450
v -1.687387 0.209461 -2.425041
v -2.143931 0.209461 -2.050365
v -2.518607 0.209461 -1.593821
v -2.797016 0.209461 -1.072954
v -2.968459 0.209461 -0.507780
v -3.026348 0.209461 0.079981
v -2.968459 0.209461 0.667742
v -2.797016 0.209461 1.232915
v -2.518607 0.209461 1.753783
v -2.143931 0.209461 2.210327
v -1.687387 0.209461 2.585003
v -1.166519 0.209461 2.863412
v -0.601345 0.209461 3.034856
v -0.013584 0.209461 3.092745
v 0.574178 0.209461 3.034855
v 1.139352 0.209461 2.863411
v 1.660219 0.209461 2.585002
v 2.116762 0.209461 2.210325
v 2.491438 0.209461 1.753781
v 2.769847 0.209461 1.232913
v 2.941290 0.209461 0.667739
v 2.999179 0.209461 0.079978
v 2.941289 0.209461 -0.507783
v 2.769845 0.209461 -1.072957
v 2.491435 0.209461 -1.593824
v 2.116758 0.209461 -2.050368
v 1.660214 0.209461 -2.425043
v 1.139346 0.209461 -2.703452
v 0.574172 0.209461 -2.874895
vt 0.000000 0.000000
vt 0.000000 0.000000
vt 0.000000 0.000000
vt 0.000000 0.000000
vt 0.000000 0.000000
vt 0.000000 0.000000
vt 0.000000 0.000000
vt 0.000000 0.000000
vt 0.000000 0.000000
vt 0.000000 0.000000
vt 0.000000 0.000000
vt 0.000000 0.000000
vt 0.000000 0.000000
vt 0.000000 0.000000
vt 0.000000 0.000000
vt 0.000000 0.000000
vt 0.000000 0.000000
vt 0.000000 0.000000
vt 0.000000 0.000000
vt 0.000000 0.000000
vt 0.000000 0.000000
vt 0.000000 0.000000
vt 0.000000 0.000000
vt 0.000000 0.000000
vt 0.000000 0.000000
vt 0.000000 0.000000
vt 0.000000 0.000000
vt 0.000000 0.000000
vt 0.000000 0.000000
vt 0.000000 0.000000
vt 0.000000 0.000000
vt 0.000000 0.000000
vt 0.000000 0.000000
vt 0.000000 0.000000
vt 0.000000 0.000000
vt 0.000000 0.000000
vt 0.000000 0.000000
vt 0.000000 0.000000
vt 0.000000 0.000000
vt 0.000000 0.000000
vt 0.000000 0.000000
vt 0.000000 0.000000
vt 0.000000 0.000000
vt 0.000000 0.000000
vt 0.000000 0.000000
vt 0.000000 0.000000
vt 0.000000 0.000000
vt 0.000000 0.000000
vt 0.000000 0.000000
vt 0.000000 0.000000
vt 0.000000 0.000000
vt 0.000000 0.000000
vt 0.000000 0.000000
vt 0.000000 0.000000
vt 0.000000 0.000000
vt 0.000000 0.000000
vt 0.000000 0.000000
vt 0.000000 0.000000
vt 0.000000 0.000000
vt 0.000000 0.000000
vt 0.000000 0.000000
vt 0.000000 0.000000
vt 0.000000 0.000000
vt 0.000000 0.000000
vt 0.000000 0.000000
vt 0.000000 0.000000
vt 0.000000 0.000000
vt 0.000000 0.000000
vt 0.000000 0.000000
vt 0.000000 0.000000
vt 0.000000 0.000000
vt 0.000000 0.000000
vt 0.000000 0.000000
vt 0.000000 0.000000
vt 0.000000 0.000000
vt 0.000000 0.000000
vt 0.000000 0.000000
vt 0.000000 0.000000
vt 0.000000 0.000000
vt 0.000000 0.000000
vt 0.000000 0.000000
vt 0.000000 0.000000
vt 0.000000 0.000000
vt 0.000000 0.000000
vt 0.000000 0.000000
vt 0.000000 0.000000
vt 0.000000 0.000000
vt 0.000000 0.000000
vt 0.000000 0.000000
vt 0.000000 0.000000
vt 0.000000 0.000000
vt 0.000000 0.000000
vt 0.000000 0.000000
vt 0.000000 0.000000
vt 0.000000 0.000000
vt 0.000000 0.000000
vt 0.000000 0.000000
vt 0.000000 0.000000
vt 0.000000 0.000000
vt 0.000000 0.000000
vt 0.000000 0.000000
vt 0.000000 0.000000
vt 0.000000 0.000000
vt 0.000000 0.000000
vt 0.000000 0.000000
vt 0.000000 0.000000
vt 0.000000 0.000000
vt 0.000000 0.000000
vt 0.000000 0.000000
vt 0.000000 0.000000
vt 0.000000 0.000000
vt 0.000000 0.000000
vt 0.000000 0.000000
vt 0.000000 0.000000
vt 0.000000 0.000000
vt 0.000000 0.000000
vt 0.000000 0.000000
vt 0.000000 0.000000
vt 0.000000 0.000000
vt 0.000000 0.000000
vt 0.000000 0.000000
vt 0.000000 0.000000
vt 0.000000 0.000000
vt 0.000000 0.000000
vt 0.000000 0.000000
vt 0.000000 0.000000
vt 0.000000 0.000000
vt 0.000000 0.000000
vt 0.000000 0.000000
vt 0.000000 0.000000
vt 0.000000 0.000000
vt 0.000000 0.000000
vt 0.000000 0.000000
vt 0.000000 0.000000
vt 0.000000 0.000000
vt 0.000000 0.000000
vt 0.000000 0.000000
vt 0.000000 0.000000
vt 0.000000 0.000000
vt 0.000000 0.000000
vt 0.000000 0.000000
vt 0.000000 0.000000
vt 0.000000 0.000000
vt 0.000000 0.000000
vt 0.000000 0.000000
vt 0.000000 0.000000
vt 0.000000 0.000000
vt 0.000000 0.000000
vt 0.000000 0.000000
vt 0.000000 0.000000
vt 0.000000 0.000000
vt 0.000000 0.000000
vt 0.000000 0.000000
vt 0.000000 0.000000
vt 0.000000 0.000000
vt 0.000000 0.000000
vt 0.000000 0.000000
vt 0.000000 0.000000
vt 0.000000 0.000000
vt 0.000000 0.000000
vt 0.000000 0.000000
vt 0.000000 0.000000
vt 0.000000 0.000000
vt 0.000000 0.000000
vt 0.000000 0.000000
vt 0.000000 0.000000
vt 0.000000 0.000000
vt 0.000000 0.000000
vt 0.000000 0.000000
vt 0.000000 0.000000
vt 0.000000 0.000000
vt 0.000000 0.000000
vt 0.000000 0.000000
vt 0.000000 0.000000
vt 0.000000 0.000000
vt 0.000000 0.000000
vt 0.000000 0.000000
vt 0.000000 0.000000
vt 0.000000 0.000000
vt 0.000000 0.000000
vt 0.000000 0.000000
vt 0.000000 0.000000
vt 0.000000 0.000000
vt 0.000000 0.000000
vt 0.000000 0.000000
vt 0.000000 0.000000
vt 0.000000 0.000000
vt 0.000000 0.000000
vt 0.000000 0.000000
vt 0.000000 0.000000
vt 0.000000 0.000000
vt 0.000000 0.000000
vt 0.000000 0.000000
vt 0.000000 0.000000
vt 0.000000 0.000000
vt 0.000000 0.000000
vt 0.000000 0.000000
vt 0.000000 0.000000
vt 0.000000 0.000000
vt 0.000000 0.000000
vt 0.000000 0.000000
vt 0.000000 0.000000
vt 0.000000 0.000000
vt 0.000000 0.000000
vt 0.000000 0.000000
vt 0.000000 0.000000
vt 0.000000 0.000000
vt 0.000000 0.000000
vt 0.000000 0.000000
vt 0.000000 0.000000
vt 0.000000 0.000000
vt 0.000000 0.000000
vt 0.000000 0.000000
vt 0.000000 0.000000
vt 0.000000 0.000000
vt 0.000000 0.000000
vt 0.000000 0.000000
vt 0.000000 0.000000
vt 0.000000 0.000000
vt 0.000000 0.000000
vt 0.000000 0.000000
vt 0.000000 0.000000
vt 0.000000 0.000000
vt 0.000000 0.000000
vt 0.000000 0.000000
vt 0.000000 0.000000
vt 0.000000 0.000000
vt 0.000000 0.000000
vt 0.000000 0.000000
vt 0.000000 0.000000
vt 0.000000 0.000000
vt 0.000000 0.000000
vt 0.000000 0.000000
vt 0.000000 0.000000
vt 0.000000 0.000000
vt 0.000000 0.000000
vt 0.000000 0.000000
vt 0.000000 0.000000
vt 0.000000 0.000000
vt 0.000000 0.000000
vt 0.000000 0.000000
vt 0.000000 0.000000
vt 0.000000 0.000000
vt 0.000000 0.000000
vt 0.000000 0.000000
vt 0.000000 0.000000
vt 0.000000 0.000000
vt 0.000000 0.000000
vt 0.000000 0.000000
vt 0.000000 0.000000
vt 0.000000 0.000000
vt 0.000000 0.000000
vt 0.000000 0.000000
vt 0.000000 0.000000
vt 0.000000 0.000000
vt 0.000000 0.000000
vn 0.2903 0.0000 -0.9569
vn 0.2903 0.0000 0.9569
vn -0.6344 0.0000 0.7730
vn 0.0980 0.0000 -0.9952
vn 0.4714 0.0000 0.8819
vn -0.4714 0.0000 0.8819
vn -0.0980 0.0000 -0.9952
vn 0.6344 0.0000 0.7730
vn -0.2903 0.0000 0.9569
vn -0.2903 0.0000 -0.9569
vn 0.7730 0.0000 0.6344
vn -0.0980 0.0000 0.9952
vn -0.4714 0.0000 -0.8819
vn 0.8819 0.0000 0.4714
vn -0.6344 0.0000 -0.7730
vn 0.9569 0.0000 0.2903
vn -0.7730 0.0000 -0.6344
vn 0.9952 0.0000 0.0980
vn -0.8819 0.0000 -0.4714
vn 0.9952 0.0000 -0.0980
vn -0.9569 0.0000 -0.2903
vn 0.9569 0.0000 -0.2903
vn -0.9952 0.0000 -0.0980
vn 0.8819 0.0000 -0.4714
vn -0.9952 0.0000 0.0980
vn 0.7730 0.0000 -0.6344
vn -0.9569 0.0000 0.2903
vn 0.6344 0.0000 -0.7730
vn -0.8819 0.0000 0.4714
vn 0.4714 0.0000 -0.8819
vn 0.0980 0.0000 0.9952
vn -0.7730 0.0000 0.6344
vn 0.9740 0.2050 0.0959
vn -0.7699 0.0903 -0.6318
vn 0.9509 0.1118 0.2885
vn -0.6234 0.1857 -0.7596
vn 0.8819 0.0111 0.4714
vn -0.4539 0.2696 -0.8493
vn -0.0885 -0.4303 0.8983
vn 0.7699 -0.0903 0.6318
vn -0.2731 0.3389 -0.9003
vn -0.2588 -0.4532 0.8530
vn 0.6234 -0.1857 0.7596
vn -0.0902 0.3925 -0.9153
vn -0.4181 -0.4618 0.7823
vn 0.4539 -0.2696 0.8493
vn 0.0885 0.4303 -0.8983
vn -0.5645 -0.4563 0.6879
vn 0.2731 -0.3389 0.9003
vn 0.2588 0.4532 -0.8530
vn -0.6955 -0.4365 0.5708
vn 0.0902 -0.3925 0.9153
vn 0.4181 0.4618 -0.7823
vn -0.8075 -0.4020 0.4316
vn 0.5645 0.4563 -0.6879
vn -0.8957 -0.3519 0.2717
vn 0.6955 0.4365 -0.5708
vn -0.9536 -0.2860 0.0939
vn 0.8075 0.4020 -0.4316
vn 0.0000 -1.0000 0.0000
vn -0.9740 -0.2050 -0.0959
vn 0.8957 0.3519 -0.2717
vn -0.9509 -0.1117 -0.2885
vn -0.8819 -0.0111 -0.4714
vn 0.9536 0.2860 -0.0939
g Circle_Circle_Material.001
usemtl Material.001
s off
f 16/1/1 15/2/1 47/3/1 48/4/1
f 3/5/2 2/6/2 34/7/2 35/8/2
f 30/9/3 29/10/3 61/11/3 62/12/3
f 17/13/4 16/1/4 48/4/4 49/14/4
f 4/15/5 3/5/5 35/8/5 36/16/5
f 31/17/6 30/9/6 62/12/6 63/18/6
f 18/19/7 17/13/7 49/14/7 50/20/7
f 5/21/8 4/15/8 36/16/8 37/22/8
f 32/23/9 31/17/9 63/18/9 64/24/9
f 19/25/10 18/19/10 50/20/10 51/26/10
f 6/27/11 5/21/11 37/22/11 38/28/11
f 1/29/12 32/23/12 64/24/12 33/30/12
f 20/31/13 19/25/13 51/26/13 52/32/13
f 7/33/14 6/27/14 38/28/14 39/34/14
f 21/35/15 20/31/15 52/32/15 53/36/15
f 8/37/16 7/33/16 39/34/16 40/38/16
f 22/39/17 21/35/17 53/36/17 54/40/17
f 9/41/18 8/37/18 40/38/18 41/42/18
f 23/43/19 22/39/19 54/40/19 55/44/19
f 10/45/20 9/41/20 41/42/20 42/46/20
f 24/47/21 23/43/21 55/44/21 56/48/21
f 11/49/22 10/45/22 42/46/22 43/50/22
f 25/51/23 24/47/23 56/48/23 57/52/23
f 12/53/24 11/49/24 43/50/24 44/54/24
f 26/55/25 25/51/25 57/52/25 58/56/25
f 13/57/26 12/53/26 44/54/26 45/58/26
f 27/59/27 26/55/27 58/56/27 59/60/27
f 14/61/28 13/57/28 45/58/28 46/62/28
f 28/63/29 27/59/29 59/60/29 60/64/29
f 15/2/30 14/61/30 46/62/30 47/3/30
f 2/6/31 1/29/31 33/30/31 34/7/31
f 29/10/32 28/63/32 60/64/32 61/11/32
f 41/42/33 40/38/33 72/65/33 73/66/33
f 54/40/34 53/36/34 85/67/34 86/68/34
f 40/38/35 39/34/35 71/69/35 72/65/35
f 53/36/36 52/32/36 84/70/36 85/67/36
f 39/34/37 38/28/37 70/71/37 71/69/37
f 52/32/38 51/26/38 83/72/38 84/70/38
f 33/30/39 64/24/39 96/73/39 65/74/39
f 38/28/40 37/22/40 69/75/40 70/71/40
f 51/26/41 50/20/41 82/76/41 83/72/41
f 64/24/42 63/18/42 95/77/42 96/73/42
f 37/22/43 36/16/43 68/78/43 69/75/43
f 50/20/44 49/14/44 81/79/44 82/76/44
f 63/18/45 62/12/45 94/80/45 95/77/45
f 36/16/46 35/8/46 67/81/46 68/78/46
f 49/14/47 48/4/47 80/82/47 81/79/47
f 62/12/48 61/11/48 93/83/48 94/80/48
f 35/8/49 34/7/49 66/84/49 67/81/49
f 48/4/50 47/3/50 79/85/50 80/82/50
f 61/11/51 60/64/51 92/86/51 93/83/51
f 34/7/52 33/30/52 65/74/52 66/84/52
f 47/3/53 46/62/53 78/87/53 79/85/53
f 60/64/54 59/60/54 91/88/54 92/86/54
f 46/62/55 45/58/55 77/89/55 78/87/55
f 59/60/56 58/56/56 90/90/56 91/88/56
f 45/58/57 44/54/57 76/91/57 77/89/57
f 58/56/58 57/52/58 89/92/58 90/90/58
f 44/54/59 43/50/59 75/93/59 76/91/59
f 74/94/60 73/66/60 105/95/60 106/96/60
f 57/52/61 56/48/61 88/97/61 89/92/61
f 43/50/62 42/46/62 74/94/62 75/93/62
f 56/48/63 55/44/63 87/98/63 88/97/63
f 87/98/60 86/68/60 118/99/60 119/100/60
f 73/66/60 72/65/60 104/101/60 105/95/60
f 86/68/60 85/67/60 117/102/60 118/99/60
f 72/65/60 71/69/60 103/103/60 104/101/60
f 85/67/60 84/70/60 116/104/60 117/102/60
f 71/69/60 70/71/60 102/105/60 103/103/60
f 84/70/60 83/72/60 115/106/60 116/104/60
f 65/74/60 96/73/60 128/107/60 97/108/60
f 70/71/60 69/75/60 101/109/60 102/105/60
f 83/72/60 82/76/60 114/110/60 115/106/60
f 96/73/60 95/77/60 127/111/60 128/107/60
f 69/75/60 68/78/60 100/112/60 101/109/60
f 82/76/60 81/79/60 113/113/60 114/110/60
f 95/77/60 94/80/60 126/114/60 127/111/60
f 68/78/60 67/81/60 99/115/60 100/112/60
f 66/84/60 65/74/60 97/108/60 98/116/60
f 81/79/60 80/82/60 112/117/60 113/113/60
f 94/80/60 93/83/60 125/118/60 126/114/60
f 67/81/60 66/84/60 98/116/60 99/115/60
f 80/82/60 79/85/60 111/119/60 112/117/60
f 93/83/60 92/86/60 124/120/60 125/118/60
f 79/85/60 78/87/60 110/121/60 111/119/60
f 92/86/60 91/88/60 123/122/60 124/120/60
f 78/87/60 77/89/60 109/123/60 110/121/60
f 91/88/60 90/90/60 122/124/60 123/122/60
f 77/89/60 76/91/60 108/125/60 109/123/60
f 90/90/60 89/92/60 121/126/60 122/124/60
f 76/91/60 75/93/60 107/127/60 108/125/60
f 89/92/60 88/97/60 120/128/60 121/126/60
f 55/44/64 54/40/64 86/68/64 87/98/64
f 42/46/65 41/42/65 73/66/65 74/94/65
f 128/107/60 98/116/60 97/108/60
f 127/111/60 98/116/60 128/107/60
f 127/111/60 99/115/60 98/116/60
f 112/117/60 110/121/60 115/106/60
f 127/111/60 126/114/60 125/118/60
f 100/112/60 127/111/60 125/118/60
f 125/118/60 101/109/60 100/112/60
f 124/120/60 102/105/60 125/118/60
f 100/112/60 99/115/60 127/111/60
f 123/122/60 102/105/60 124/120/60
f 123/122/60 103/103/60 102/105/60
f 122/124/60 103/103/60 123/122/60
f 122/124/60 104/101/60 103/103/60
f 121/126/60 104/101/60 122/124/60
f 121/126/60 105/95/60 104/101/60
f 120/128/60 105/95/60 121/126/60
f 120/128/60 106/96/60 105/95/60
f 119/100/60 106/96/60 120/128/60
f 119/100/60 107/127/60 106/96/60
f 118/99/60 107/127/60 119/100/60
f 118/99/60 108/125/60 107/127/60
f 117/102/60 108/125/60 118/99/60
f 117/102/60 109/123/60 108/125/60
f 116/104/60 109/123/60 117/102/60
f 116/104/60 110/121/60 109/123/60
f 115/106/60 110/121/60 116/104/60
f 114/110/60 112/117/60 115/106/60
f 111/119/60 110/121/60 112/117/60
f 113/113/60 112/117/60 114/110/60
f 102/105/60 101/109/60 125/118/60
f 88/97/60 87/98/60 119/100/60 120/128/60
f 75/93/60 74/94/60 106/96/60 107/127/60
f 144/129/1 143/130/1 175/131/1 176/132/1
f 131/133/2 130/134/2 162/135/2 163/136/2
f 158/137/3 157/138/3 189/139/3 190/140/3
f 145/141/4 144/129/4 176/132/4 177/142/4
f 132/143/5 131/133/5 163/136/5 164/144/5
f 159/145/6 158/137/6 190/140/6 191/146/6
f 146/147/7 145/141/7 177/142/7 178/148/7
f 133/149/8 132/143/8 164/144/8 165/150/8
f 160/151/9 159/145/9 191/146/9 192/152/9
f 147/153/10 146/147/10 178/148/10 179/154/10
f 134/155/11 133/149/11 165/150/11 166/156/11
f 129/157/12 160/151/12 192/152/12 161/158/12
f 148/159/13 147/153/13 179/154/13 180/160/13
f 135/161/14 134/155/14 166/156/14 167/162/14
f 149/163/15 148/159/15 180/160/15 181/164/15
f 136/165/16 135/161/16 167/162/16 168/166/16
f 150/167/17 149/163/17 181/164/17 182/168/17
f 137/169/18 136/165/18 168/166/18 169/170/18
f 151/171/19 150/167/19 182/168/19 183/172/19
f 138/173/20 137/169/20 169/170/20 170/174/20
f 152/175/21 151/171/21 183/172/21 184/176/21
f 139/177/22 138/173/22 170/174/22 171/178/22
f 153/179/23 152/175/23 184/176/23 185/180/23
f 140/181/24 139/177/24 171/178/24 172/182/24
f 154/183/25 153/179/25 185/180/25 186/184/25
f 141/185/26 140/181/26 172/182/26 173/186/26
f 155/187/27 154/183/27 186/184/27 187/188/27
f 142/189/28 141/185/28 173/186/28 174/190/28
f 156/191/29 155/187/29 187/188/29 188/192/29
f 143/130/30 142/189/30 174/190/30 175/131/30
f 130/134/31 129/157/31 161/158/31 162/135/31
f 157/138/32 156/191/32 188/192/32 189/139/32
f 169/170/33 168/166/33 200/193/33 201/194/33
f 182/168/34 181/164/34 213/195/34 214/196/34
f 168/166/35 167/162/35 199/197/35 200/193/35
f 181/164/36 180/160/36 212/198/36 213/195/36
f 167/162/37 166/156/37 198/199/37 199/197/37
f 180/160/38 179/154/38 211/200/38 212/198/38
f 161/158/39 192/152/39 224/201/39 193/202/39
f 166/156/40 165/150/40 197/203/40 198/199/40
f 179/154/41 178/148/41 210/204/41 211/200/41
f 192/152/42 191/146/42 223/205/42 224/201/42
f 165/150/43 164/144/43 196/206/43 197/203/43
f 178/148/44 177/142/44 209/207/44 210/204/44
f 191/146/45 190/140/45 222/208/45 223/205/45
f 164/144/46 163/136/46 195/209/46 196/206/46
f 177/142/47 176/132/47 208/210/47 209/207/47
f 190/140/48 189/139/48 221/211/48 222/208/48
f 163/136/49 162/135/49 194/212/49 195/209/49
f 176/132/50 175/131/50 207/213/50 208/210/50
f 189/139/51 188/192/51 220/214/51 221/211/51
f 162/135/52 161/158/52 193/202/52 194/212/52
f 175/131/53 174/190/53 206/215/53 207/213/53
f 188/192/54 187/188/54 219/216/54 220/214/54
f 174/190/55 173/186/55 205/217/55 206/215/55
f 187/188/56 186/184/56 218/218/56 219/216/56
f 173/186/57 172/182/57 204/219/57 205/217/57
f 186/184/58 185/180/58 217/220/58 218/218/58
f 172/182/59 171/178/59 203/221/59 204/219/59
f 202/222/60 201/194/60 233/223/60 234/224/60
f 185/180/61 184/176/61 216/225/61 217/220/61
f 171/178/62 170/174/62 202/222/62 203/221/62
f 184/176/63 183/172/63 215/226/63 216/225/63
f 215/226/60 214/196/60 246/227/60 247/228/60
f 201/194/60 200/193/60 232/229/60 233/223/60
f 214/196/60 213/195/60 245/230/60 246/227/60
f 200/193/60 199/197/60 231/231/60 232/229/60
f 213/195/60 212/198/60 244/232/60 245/230/60
f 199/197/60 198/199/60 230/233/60 231/231/60
f 212/198/60 211/200/60 243/234/60 244/232/60
f 193/202/60 224/201/60 256/235/60 225/236/60
f 198/199/60 197/203/60 229/237/60 230/233/60
f 211/200/60 210/204/60 242/238/60 243/234/60
f 224/201/60 223/205/60 255/239/60 256/235/60
f 197/203/60 196/206/60 228/240/60 229/237/60
f 210/204/60 209/207/60 241/241/60 242/238/60
f 223/205/60 222/208/60 254/242/60 255/239/60
f 196/206/60 195/209/60 227/243/60 228/240/60
f 194/212/60 193/202/60 225/236/60 226/244/60
f 209/207/60 208/210/60 240/245/60 241/241/60
f 222/208/60 221/211/60 253/246/60 254/242/60
f 195/209/60 194/212/60 226/244/60 227/243/60
f 208/210/60 207/213/60 239/247/60 240/245/60
f 221/211/60 220/214/60 252/248/60 253/246/60
f 207/213/60 206/215/60 238/249/60 239/247/60
f 220/214/60 219/216/60 251/250/60 252/248/60
f 206/215/60 205/217/60 237/251/60 238/249/60
f 219/216/60 218/218/60 250/252/60 251/250/60
f 205/217/60 204/219/60 236/253/60 237/251/60
f 218/218/60 217/220/60 249/254/60 250/252/60
f 204/219/60 203/221/60 235/255/60 236/253/60
f 217/220/60 216/225/60 248/256/60 249/254/60
f 183/172/64 182/168/64 214/196/64 215/226/64
f 170/174/65 169/170/65 201/194/65 202/222/65
f 256/235/60 226/244/60 225/236/60
f 255/239/60 226/244/60 256/235/60
f 255/239/60 227/243/60 226/244/60
f 240/245/60 238/249/60 243/234/60
f 255/239/60 254/242/60 253/246/60
f 228/240/60 255/239/60 253/246/60
f 253/246/60 229/237/60 228/240/60
f 252/248/60 230/233/60 253/246/60
f 228/240/60 227/243/60 255/239/60
f 251/250/60 230/233/60 252/248/60
f 251/250/60 231/231/60 230/233/60
f 250/252/60 231/231/60 251/250/60
f 250/252/60 232/229/60 231/231/60
f 249/254/60 232/229/60 250/252/60
f 249/254/60 233/223/60 232/229/60
f 248/256/60 233/223/60 249/254/60
f 248/256/60 234/224/60 233/223/60
f 247/228/60 234/224/60 248/256/60
f 247/228/60 235/255/60 234/224/60
f 246/227/60 235/255/60 247/228/60
f 246/227/60 236/253/60 235/255/60
f 245/230/60 236/253/60 246/227/60
f 245/230/60 237/251/60 236/253/60
f 244/232/60 237/251/60 245/230/60
f 244/232/60 238/249/60 237/251/60
f 243/234/60 238/249/60 244/232/60
f 242/238/60 240/245/60 243/234/60
f 239/247/60 238/249/60 240/245/60
f 241/241/60 240/245/60 242/238/60
f 230/233/60 229/237/60 253/246/60
f 216/225/60 215/226/60 247/228/60 248/256/60
f 203/221/60 202/222/60 234/224/60 235/255/60
